<?xml version="1.0" encoding="utf-8"?>
<!DOCTYPE svg PUBLIC "-//W3C//DTD SVG 1.0//EN" "http://www.w3.org/TR/2001/REC-SVG-20010904/DTD/svg10.dtd">
<svg version="1.0" xmlns="http://www.w3.org/2000/svg" width="1080px" height="1080px" viewBox="0 0 1080 1080" preserveAspectRatio="xMidYMid meet">
 <g fill="#000000">
  <path d="M536.1 972.6 c-3.3 -5.7 -6.1 -10.7 -6.1 -11 0 -0.3 2.3 -0.6 5 -0.6 l5 0 0 -209.5 0 -209.5 -203.5 0 -203.4 0 -0.3 5.4 -0.3 5.3 -10.7 -6.1 c-5.9 -3.4 -10.7 -6.3 -10.7 -6.6 0 -0.3 4.8 -3.2 10.7 -6.6 l10.7 -6.1 0.3 6.3 0.3 6.4 203.4 0 203.5 0 0 -190.5 0 -190.5 -5.5 0 -5.4 0 5.4 -9.3 c3 -5.2 5.5 -10.4 5.5 -11.6 0 -4.1 2.4 -1.6 8.7 9.3 3.5 5.9 6.3 10.9 6.3 11.2 0 0.2 -2.9 0.4 -6.5 0.4 l-6.5 0 0 190.5 0 190.5 202.5 0 202.4 0 0.3 -6.4 0.3 -6.3 10.7 6.1 c5.9 3.4 10.7 6.3 10.7 6.6 0 0.3 -4.8 3.2 -10.7 6.6 l-10.7 6.1 -0.3 -5.3 -0.3 -5.4 -202.4 0 -202.5 0 0 209.5 0 209.4 6.5 0.3 6.4 0.3 -6.3 10.8 -6.3 10.8 -6.2 -10.5z"/>
 </g>
</svg>